<svg width="54" height="14" viewBox="0 0 54 14" fill="none" xmlns="http://www.w3.org/2000/svg">
<path d="M8.87662e-05 13.0909V3.29018e-05H8.6677V2.28199H2.76784V5.40131H8.09242V7.68327H2.76784V13.0909H8.87662e-05ZM13.2013 3.29018e-05V13.0909H10.4782V3.29018e-05H13.2013ZM21.6787 8.91054V3.27276H24.4017V13.0909H21.7874V11.3076H21.6851C21.4635 11.8828 21.0949 12.3452 20.5793 12.6946C20.0679 13.0441 19.4436 13.2188 18.7064 13.2188C18.0502 13.2188 17.4727 13.0696 16.9742 12.7713C16.4756 12.473 16.0857 12.049 15.8044 11.4993C15.5274 10.9496 15.3868 10.2912 15.3825 9.52418V3.27276H18.1056V9.03839C18.1098 9.61793 18.2654 10.076 18.5722 10.4127C18.879 10.7493 19.2902 10.9176 19.8058 10.9176C20.134 10.9176 20.4408 10.8431 20.7263 10.6939C21.0118 10.5405 21.2419 10.3147 21.4166 10.0164C21.5956 9.71807 21.683 9.34946 21.6787 8.91054ZM31.0542 13.2827C30.0443 13.2827 29.175 13.0782 28.4463 12.6691C27.7219 12.2557 27.1636 11.6719 26.7716 10.9176C26.3795 10.1591 26.1835 9.26211 26.1835 8.2266C26.1835 7.21665 26.3795 6.33029 26.7716 5.5675C27.1636 4.80472 27.7155 4.21026 28.4271 3.78412C29.143 3.35799 29.9825 3.14492 30.9456 3.14492C31.5933 3.14492 32.1963 3.24932 32.7545 3.45813C33.317 3.66268 33.8071 3.97162 34.2247 4.38498C34.6466 4.79833 34.9747 5.31822 35.2091 5.94464C35.4434 6.56679 35.5606 7.29549 35.5606 8.13072V8.87858H27.2702V7.19108H32.9974C32.9974 6.79904 32.9122 6.45174 32.7417 6.14918C32.5713 5.84662 32.3348 5.61012 32.0322 5.43966C31.7339 5.26495 31.3866 5.17759 30.9903 5.17759C30.577 5.17759 30.2105 5.27347 29.8909 5.46523C29.5756 5.65273 29.3284 5.90628 29.1494 6.22589C28.9704 6.54123 28.8788 6.89279 28.8746 7.28057V8.88498C28.8746 9.37077 28.964 9.79052 29.143 10.1442C29.3263 10.4979 29.5841 10.7706 29.9165 10.9624C30.2488 11.1542 30.643 11.25 31.099 11.25C31.4015 11.25 31.6785 11.2074 31.93 11.1222C32.1814 11.037 32.3966 10.9091 32.5756 10.7387C32.7545 10.5682 32.8909 10.3594 32.9846 10.1122L35.5031 10.2784C35.3753 10.8836 35.1132 11.412 34.7169 11.8637C34.3248 12.3111 33.8177 12.6605 33.1956 12.912C32.5777 13.1591 31.8639 13.2827 31.0542 13.2827ZM40.0606 7.41481V13.0909H37.3376V3.27276H39.9328V5.005H40.0479C40.2652 4.43398 40.6295 3.98228 41.1409 3.64989C41.6523 3.31324 42.2723 3.14492 43.001 3.14492C43.6828 3.14492 44.2773 3.29407 44.7844 3.59236C45.2915 3.89066 45.6856 4.31679 45.9669 4.87077C46.2481 5.42049 46.3888 6.07674 46.3888 6.83952V13.0909H43.6657V7.32532C43.67 6.72447 43.5166 6.25572 43.2055 5.91907C42.8944 5.57816 42.4662 5.4077 41.9207 5.4077C41.5542 5.4077 41.2304 5.48654 40.9491 5.64421C40.6721 5.80188 40.4548 6.03199 40.2971 6.33455C40.1437 6.63285 40.0649 6.99293 40.0606 7.41481ZM53.7572 3.27276V5.31822H47.8445V3.27276H53.7572ZM49.1869 0.920488H51.9099V10.0739C51.9099 10.3253 51.9482 10.5213 52.0249 10.662C52.1017 10.7983 52.2082 10.8942 52.3445 10.9496C52.4852 11.005 52.6471 11.0327 52.8303 11.0327C52.9582 11.0327 53.086 11.0221 53.2139 11.0007C53.3417 10.9752 53.4397 10.956 53.5079 10.9432L53.9362 12.9695C53.7998 13.0121 53.608 13.0611 53.3609 13.1165C53.1137 13.1762 52.8133 13.2124 52.4596 13.2252C51.8034 13.2507 51.2281 13.1634 50.7338 12.9631C50.2437 12.7628 49.8623 12.4517 49.5896 12.0299C49.3169 11.608 49.1826 11.0753 49.1869 10.4319V0.920488Z" fill="white"/>
</svg>
