<svg width="82" height="14" viewBox="0 0 82 14" fill="none" xmlns="http://www.w3.org/2000/svg">
<path d="M8.87662e-05 13.2699V0.178988H8.6677V2.46095H2.76784V5.58027H8.09242V7.86223H2.76784V13.2699H8.87662e-05ZM13.2013 0.178988V13.2699H10.4782V0.178988H13.2013ZM21.6787 9.0895V3.45172H24.4017V13.2699H21.7874V11.4865H21.6851C21.4635 12.0618 21.0949 12.5242 20.5793 12.8736C20.0679 13.223 19.4436 13.3977 18.7064 13.3977C18.0502 13.3977 17.4727 13.2486 16.9742 12.9503C16.4756 12.652 16.0857 12.228 15.8044 11.6783C15.5274 11.1286 15.3868 10.4702 15.3825 9.70314V3.45172H18.1056V9.21734C18.1098 9.79689 18.2654 10.255 18.5722 10.5916C18.879 10.9283 19.2902 11.0966 19.8058 11.0966C20.134 11.0966 20.4408 11.022 20.7263 10.8729C21.0118 10.7195 21.2419 10.4936 21.4166 10.1953C21.5956 9.89703 21.683 9.52842 21.6787 9.0895ZM31.0542 13.4617C30.0443 13.4617 29.175 13.2571 28.4463 12.848C27.7219 12.4347 27.1636 11.8509 26.7716 11.0966C26.3795 10.3381 26.1835 9.44106 26.1835 8.40555C26.1835 7.39561 26.3795 6.50924 26.7716 5.74646C27.1636 4.98368 27.7155 4.38922 28.4271 3.96308C29.143 3.53694 29.9825 3.32387 30.9456 3.32387C31.5933 3.32387 32.1963 3.42828 32.7545 3.63708C33.317 3.84163 33.8071 4.15058 34.2247 4.56393C34.6466 4.97728 34.9747 5.49717 35.2091 6.12359C35.4434 6.74575 35.5606 7.47444 35.5606 8.30967V9.05754H27.2702V7.37004H32.9974C32.9974 6.97799 32.9122 6.63069 32.7417 6.32814C32.5713 6.02558 32.3348 5.78907 32.0322 5.61862C31.7339 5.4439 31.3866 5.35655 30.9903 5.35655C30.577 5.35655 30.2105 5.45243 29.8909 5.64419C29.5756 5.83169 29.3284 6.08524 29.1494 6.40484C28.9704 6.72018 28.8788 7.07174 28.8746 7.45953V9.06393C28.8746 9.54973 28.964 9.96947 29.143 10.3232C29.3263 10.6769 29.5841 10.9496 29.9165 11.1413C30.2488 11.3331 30.643 11.429 31.099 11.429C31.4015 11.429 31.6785 11.3864 31.93 11.3011C32.1814 11.2159 32.3966 11.0881 32.5756 10.9176C32.7545 10.7472 32.8909 10.5384 32.9846 10.2912L35.5031 10.4574C35.3753 11.0625 35.1132 11.5909 34.7169 12.0426C34.3248 12.4901 33.8177 12.8395 33.1956 13.0909C32.5777 13.3381 31.8639 13.4617 31.0542 13.4617ZM40.0606 7.59376V13.2699H37.3376V3.45172H39.9328V5.18396H40.0479C40.2652 4.61294 40.6295 4.16123 41.1409 3.82885C41.6523 3.4922 42.2723 3.32387 43.001 3.32387C43.6828 3.32387 44.2773 3.47302 44.7844 3.77132C45.2915 4.06961 45.6856 4.49575 45.9669 5.04973C46.2481 5.59944 46.3888 6.25569 46.3888 7.01848V13.2699H43.6657V7.50427C43.67 6.90342 43.5166 6.43467 43.2055 6.09802C42.8944 5.75711 42.4662 5.58666 41.9207 5.58666C41.5542 5.58666 41.2304 5.66549 40.9491 5.82316C40.6721 5.98083 40.4548 6.21095 40.2971 6.51351C40.1437 6.8118 40.0649 7.17189 40.0606 7.59376ZM53.7572 3.45172V5.49717H47.8445V3.45172H53.7572ZM49.1869 1.09944H51.9099V10.2529C51.9099 10.5043 51.9482 10.7003 52.0249 10.8409C52.1017 10.9773 52.2082 11.0732 52.3445 11.1286C52.4852 11.184 52.6471 11.2117 52.8303 11.2117C52.9582 11.2117 53.086 11.201 53.2139 11.1797C53.3417 11.1541 53.4397 11.135 53.5079 11.1222L53.9362 13.1484C53.7998 13.1911 53.608 13.2401 53.3609 13.2955C53.1137 13.3551 52.8133 13.3913 52.4596 13.4041C51.8034 13.4297 51.2281 13.3423 50.7338 13.1421C50.2437 12.9418 49.8623 12.6307 49.5896 12.2088C49.3169 11.7869 49.1826 11.2543 49.1869 10.6108V1.09944ZM64.2625 4.41052C64.173 4.09944 64.0473 3.82458 63.8854 3.58595C63.7235 3.34305 63.5253 3.13851 63.2909 2.97231C63.0608 2.80186 62.7966 2.67189 62.4983 2.5824C62.2043 2.49291 61.8783 2.44816 61.5203 2.44816C60.8513 2.44816 60.2632 2.61436 59.7561 2.94674C59.2533 3.27913 58.8612 3.76279 58.58 4.39774C58.2987 5.02842 58.1581 5.79973 58.1581 6.71166C58.1581 7.62359 58.2966 8.39916 58.5736 9.03836C58.8506 9.67757 59.2426 10.1655 59.7497 10.5021C60.2568 10.8345 60.8556 11.0007 61.5459 11.0007C62.1723 11.0007 62.7071 10.8899 63.1503 10.6683C63.5977 10.4425 63.9387 10.125 64.173 9.71592C64.4117 9.30683 64.531 8.82316 64.531 8.26493L65.0935 8.34802H61.7185V6.26422H67.1965V7.91336C67.1965 9.06393 66.9536 10.0526 66.4678 10.8793C65.982 11.7017 65.3129 12.3367 64.4607 12.7841C63.6084 13.2273 62.6325 13.4489 61.5331 13.4489C60.3058 13.4489 59.2277 13.1783 58.2987 12.6371C57.3698 12.0916 56.6453 11.3182 56.1254 10.3168C55.6098 9.31109 55.352 8.11791 55.352 6.73723C55.352 5.67615 55.5054 4.73012 55.8122 3.89916C56.1233 3.06393 56.558 2.35655 57.1162 1.777C57.6744 1.19745 58.3243 0.756402 59.0658 0.453846C59.8073 0.151289 60.6105 1.06096e-05 61.4756 1.06096e-05C62.2171 1.06096e-05 62.9074 0.108675 63.5466 0.326005C64.1858 0.539073 64.7526 0.84163 65.2469 1.23368C65.7455 1.62572 66.1524 2.09234 66.4678 2.63353C66.7831 3.17046 66.9855 3.76279 67.075 4.41052H64.2625ZM81.3053 6.72444C81.3053 8.152 81.0347 9.36649 80.4935 10.3679C79.9566 11.3693 79.2236 12.1342 78.2947 12.6627C77.3699 13.1868 76.3302 13.4489 75.1753 13.4489C74.012 13.4489 72.968 13.1847 72.0432 12.6563C71.1185 12.1279 70.3877 11.3629 69.8508 10.3615C69.3138 9.3601 69.0454 8.14774 69.0454 6.72444C69.0454 5.29689 69.3138 4.0824 69.8508 3.08098C70.3877 2.07956 71.1185 1.31677 72.0432 0.792625C72.968 0.264215 74.012 1.06096e-05 75.1753 1.06096e-05C76.3302 1.06096e-05 77.3699 0.264215 78.2947 0.792625C79.2236 1.31677 79.9566 2.07956 80.4935 3.08098C81.0347 4.0824 81.3053 5.29689 81.3053 6.72444ZM78.4992 6.72444C78.4992 5.79973 78.3607 5.0199 78.0837 4.38495C77.811 3.75001 77.4253 3.26848 76.9268 2.94035C76.4282 2.61223 75.8444 2.44816 75.1753 2.44816C74.5063 2.44816 73.9225 2.61223 73.4239 2.94035C72.9253 3.26848 72.5376 3.75001 72.2606 4.38495C71.9878 5.0199 71.8515 5.79973 71.8515 6.72444C71.8515 7.64916 71.9878 8.42899 72.2606 9.06393C72.5376 9.69887 72.9253 10.1804 73.4239 10.5085C73.9225 10.8367 74.5063 11.0007 75.1753 11.0007C75.8444 11.0007 76.4282 10.8367 76.9268 10.5085C77.4253 10.1804 77.811 9.69887 78.0837 9.06393C78.3607 8.42899 78.4992 7.64916 78.4992 6.72444Z" fill="white"/>
</svg>
