<svg width="72" height="18" viewBox="0 0 72 18" fill="none" xmlns="http://www.w3.org/2000/svg">
<path d="M-4.44055e-05 17.4546V4.3869e-05H11.5568V3.04266H3.6903V7.20175H10.7897V10.2444H3.6903V17.4546H-4.44055e-05ZM17.6015 4.3869e-05V17.4546H13.9708V4.3869e-05H17.6015ZM28.9048 11.8807V4.36368H32.5355V17.4546H29.0497V15.0767H28.9133C28.6179 15.8438 28.1264 16.4603 27.4389 16.9262C26.7571 17.3921 25.9247 17.625 24.9417 17.625C24.0667 17.625 23.2968 17.4262 22.6321 17.0285C21.9673 16.6307 21.4474 16.0654 21.0724 15.3324C20.7031 14.5995 20.5156 13.7216 20.5099 12.6989V4.36368H24.1406V12.0512C24.1463 12.8239 24.3536 13.4347 24.7627 13.8836C25.1718 14.3324 25.7201 14.5569 26.4076 14.5569C26.8451 14.5569 27.2542 14.4574 27.6349 14.2586C28.0156 14.054 28.3224 13.7529 28.5554 13.3552C28.794 12.9574 28.9105 12.466 28.9048 11.8807ZM41.4055 17.7103C40.0589 17.7103 38.8998 17.4375 37.9282 16.8921C36.9623 16.341 36.218 15.5625 35.6953 14.5569C35.1725 13.5455 34.9112 12.3495 34.9112 10.9688C34.9112 9.6222 35.1725 8.44039 35.6953 7.42334C36.218 6.40629 36.9538 5.61368 37.9027 5.0455C38.8572 4.47732 39.9765 4.19323 41.2606 4.19323C42.1242 4.19323 42.9282 4.33243 43.6725 4.61084C44.4225 4.88357 45.076 5.2955 45.6328 5.84664C46.1953 6.39777 46.6328 7.09095 46.9453 7.92618C47.2578 8.75573 47.414 9.72732 47.414 10.841V11.8381H36.36V9.58811H43.9964C43.9964 9.06539 43.8828 8.60232 43.6555 8.19891C43.4282 7.7955 43.1129 7.48016 42.7095 7.25289C42.3117 7.01993 41.8487 6.90345 41.3203 6.90345C40.7691 6.90345 40.2805 7.03129 39.8544 7.28698C39.4339 7.53698 39.1044 7.87504 38.8657 8.30118C38.6271 8.72163 38.5049 9.19038 38.4992 9.70743V11.8466C38.4992 12.4944 38.6186 13.054 38.8572 13.5256C39.1015 13.9972 39.4453 14.3608 39.8885 14.6165C40.3316 14.8722 40.8572 15 41.4652 15C41.8686 15 42.2379 14.9432 42.5731 14.8296C42.9083 14.716 43.1953 14.5455 43.4339 14.3182C43.6725 14.091 43.8544 13.8125 43.9794 13.483L47.3373 13.7046C47.1669 14.5114 46.8174 15.216 46.289 15.8182C45.7663 16.4148 45.0902 16.8807 44.2606 17.216C43.4367 17.5455 42.485 17.7103 41.4055 17.7103ZM53.414 9.88641V17.4546H49.7833V4.36368H53.2436V6.67334H53.397C53.6867 5.91198 54.1725 5.3097 54.8544 4.86652C55.5362 4.41766 56.3629 4.19323 57.3345 4.19323C58.2436 4.19323 59.0362 4.39209 59.7123 4.78982C60.3885 5.18754 60.914 5.75573 61.289 6.49436C61.664 7.22732 61.8515 8.10232 61.8515 9.11936V17.4546H58.2208V9.76709C58.2265 8.96595 58.022 8.34095 57.6072 7.89209C57.1924 7.43754 56.6214 7.21027 55.8941 7.21027C55.4055 7.21027 54.9737 7.31539 54.5987 7.52561C54.2294 7.73584 53.9396 8.04266 53.7294 8.44607C53.5248 8.84379 53.4197 9.32391 53.414 9.88641ZM71.6761 4.36368V7.09095H63.7926V4.36368H71.6761ZM65.5823 1.22732H69.213V13.4319C69.213 13.7671 69.2642 14.0285 69.3664 14.216C69.4687 14.3978 69.6108 14.5256 69.7926 14.5995C69.9801 14.6733 70.196 14.7103 70.4403 14.7103C70.6108 14.7103 70.7812 14.6961 70.9517 14.6677C71.1221 14.6336 71.2528 14.608 71.3437 14.591L71.9147 17.2927C71.7329 17.3495 71.4772 17.4148 71.1477 17.4887C70.8181 17.5682 70.4176 17.6165 69.946 17.6336C69.071 17.6677 68.3039 17.5512 67.6448 17.2841C66.9914 17.0171 66.4829 16.6023 66.1193 16.0398C65.7556 15.4773 65.5767 14.7671 65.5823 13.9091V1.22732Z" fill="black"/>
</svg>
